<?xml version="1.0" standalone="no"?>
<!DOCTYPE svg PUBLIC "-//W3C//DTD SVG 20010904//EN"
 "http://www.w3.org/TR/2001/REC-SVG-20010904/DTD/svg10.dtd">
<svg version="1.0" xmlns="http://www.w3.org/2000/svg"
 width="256.000000pt" height="256.000000pt" viewBox="0 0 256.000000 256.000000"
 preserveAspectRatio="xMidYMid meet">
<metadata>
Created by potrace 1.14, written by Peter Selinger 2001-2017
</metadata>
<g transform="translate(0.000000,256.000000) scale(0.100000,-0.100000)"
fill="#000000" stroke="none">
<path d="M1131 2023 c-140 -139 -250 -253 -245 -253 4 0 3 -5 -4 -12 -8 -8 -8
-17 -1 -31 8 -14 8 -18 0 -13 -15 10 -14 -7 2 -23 10 -11 10 -13 0 -7 -16 9
-17 -15 -3 -32 6 -6 7 -10 4 -7 -4 3 -13 -3 -21 -13 -13 -15 -13 -14 -3 8 l11
25 -20 -25 c-14 -18 -17 -29 -10 -42 11 -21 -1 -24 -20 -5 -11 10 -12 9 -7 -1
6 -10 1 -11 -21 -6 -15 4 -34 12 -42 18 -12 9 -13 8 -6 -4 7 -13 6 -13 -7 -2
-12 10 -18 9 -28 -3 -7 -8 -19 -15 -26 -15 -8 0 -14 -4 -14 -9 0 -9 -56 -70
-65 -71 -3 0 -5 -2 -5 -5 0 -3 -22 -24 -49 -48 -27 -23 -50 -48 -50 -56 -1 -8
-4 -11 -8 -8 -3 4 -17 -8 -30 -25 -12 -18 -23 -29 -23 -25 0 3 -29 -25 -65
-63 -36 -38 -65 -67 -65 -64 0 3 -12 -9 -27 -28 -16 -18 -38 -42 -51 -54 -17
-16 -21 -29 -18 -55 3 -19 6 -34 7 -34 1 0 3 -9 5 -20 3 -17 31 -120 89 -330
9 -33 19 -70 21 -82 2 -12 9 -34 14 -48 5 -14 7 -25 4 -25 -2 0 2 -13 10 -29
9 -16 13 -31 10 -34 -3 -3 1 -20 9 -39 13 -30 21 -36 73 -48 33 -7 64 -17 69
-20 6 -4 18 -6 28 -5 9 2 17 0 17 -4 0 -4 6 -8 13 -9 6 0 23 -3 37 -7 14 -3
32 -8 40 -10 8 -2 16 -4 18 -5 1 -2 7 -4 12 -5 6 -1 11 -3 13 -5 1 -1 11 -3
22 -5 22 -4 39 -7 105 -24 25 -7 52 -15 60 -18 15 -6 29 -9 73 -17 12 -2 22
-5 22 -6 0 -3 39 -11 73 -15 31 -3 43 6 193 156 88 87 163 159 165 159 5 0 44
39 44 45 0 2 29 33 65 68 36 35 65 70 65 78 0 8 -7 41 -14 74 -8 33 -13 62
-10 64 2 2 -2 11 -9 19 -10 13 -9 15 7 8 19 -7 19 -6 2 13 -13 14 -14 21 -5
27 8 5 10 3 4 -6 -6 -10 -4 -12 9 -7 11 5 15 3 10 -5 -5 -7 -3 -8 7 -2 18 11
39 14 39 5 0 -4 17 -8 37 -9 21 -2 40 -8 44 -14 4 -7 9 -7 14 1 5 9 10 9 21 0
12 -10 59 32 269 244 179 180 253 261 251 274 -11 52 -90 353 -125 476 -11 37
-21 71 -22 75 -1 4 -3 12 -4 17 -2 6 -9 31 -15 58 -14 53 -17 56 -69 69 -20 5
-54 14 -76 19 -22 6 -48 13 -57 15 -51 12 -168 44 -188 52 -8 3 -18 5 -22 4
-4 -1 -25 5 -47 13 -23 8 -41 12 -41 8 0 -3 -6 0 -13 6 -8 6 -17 8 -20 4 -4
-3 -12 -1 -20 5 -7 6 -24 12 -37 14 -14 2 -29 6 -35 9 -5 4 -18 5 -27 4 -10
-2 -18 0 -18 4 0 4 -10 7 -22 7 -16 0 -98 -75 -277 -253z m-270 -420 c13 -16
12 -17 -3 -4 -10 7 -18 15 -18 17 0 8 8 3 21 -13z"/>
</g>
</svg>
